<svg width="19" height="14" viewBox="0 0 19 14" fill="none" xmlns="http://www.w3.org/2000/svg">
<path d="M8.49308 1.90506C8.49308 2.6738 7.89184 3.28981 7.14615 3.47666C6.20984 3.71128 5.45726 4.12282 4.8884 4.71128C4.12356 5.47612 3.77698 6.4993 3.84864 7.7808C3.85756 7.94034 3.9923 8.06151 4.15208 8.06151C4.28753 8.06151 4.40388 7.97184 4.46487 7.8509C4.70771 7.36933 5.20229 7.12854 5.9486 7.12854C6.71195 7.12854 7.37634 7.4254 7.94178 8.01911C8.50722 8.61282 8.78994 9.3903 8.78994 10.3515C8.78994 11.3976 8.45068 12.2458 7.77215 12.896C7.09362 13.5463 6.20305 13.8714 5.10044 13.8714C3.71512 13.8714 2.64078 13.3625 1.87744 12.3447C1.11409 11.2987 0.732422 9.92747 0.732422 8.23115C0.732422 6.16729 1.35441 4.38616 2.59837 2.88774C3.60935 1.67456 5.05773 0.88985 6.9435 0.533605C7.77477 0.376567 8.49308 1.05908 8.49308 1.90506ZM18.0773 1.90506C18.0773 2.6738 17.476 3.28981 16.7304 3.47666C15.794 3.71128 15.0415 4.12282 14.4726 4.71128C13.7083 5.47555 13.3494 6.49776 13.3958 7.77791C13.4016 7.93818 13.536 8.06151 13.6964 8.06151C13.8303 8.06151 13.9454 7.97278 14.006 7.85334C14.2514 7.37014 14.7603 7.12854 15.5328 7.12854C16.2962 7.12854 16.9605 7.4254 17.526 8.01911C18.0914 8.61282 18.3741 9.3903 18.3741 10.3515C18.3741 11.3976 18.0349 12.2458 17.3564 12.896C16.6778 13.5463 15.7873 13.8714 14.6846 13.8714C13.271 13.8714 12.1826 13.3625 11.4192 12.3447C10.6842 11.2987 10.3166 9.92747 10.3166 8.23115C10.3166 6.16729 10.9386 4.38616 12.1826 2.88774C13.1936 1.67456 14.6419 0.88985 16.5277 0.533605C17.359 0.376567 18.0773 1.05908 18.0773 1.90506Z" fill="#0E0E0E"/>
</svg>
