<svg width="37" height="38" viewBox="0 0 37 38" fill="none" xmlns="http://www.w3.org/2000/svg">
<path d="M18.3176 0.868896C13.514 0.868896 8.90711 2.77712 5.51045 6.17378C2.11379 9.57044 0.205567 14.1773 0.205566 18.9809C0.205566 23.7845 2.11379 28.3914 5.51045 31.788C8.90711 35.1847 13.514 37.0929 18.3176 37.0929L18.3176 18.9809V0.868896Z" fill="#0275FF"/>
<path d="M18.3177 37.0928C23.1213 37.0928 27.7281 35.1845 31.1248 31.7879C34.5215 28.3912 36.4297 23.7844 36.4297 18.9808C36.4297 14.1772 34.5215 9.57031 31.1248 6.17365C27.7281 2.77699 23.1213 0.868762 18.3177 0.868761L18.3177 18.9808L18.3177 37.0928Z" fill="#B1C7FF"/>
</svg>
