<svg width="42" height="44" viewBox="0 0 42 44" fill="none" xmlns="http://www.w3.org/2000/svg">
<path d="M41.483 32.1297L41.4919 32.1249H41.4746L31.345 26.636L21.1985 21.1375L11.0517 26.636L0.922023 32.1249H0.904785L0.913604 32.1297L0.904785 32.1345H0.922023L11.0517 37.6234L21.1985 43.1219L31.345 37.6234L41.4746 32.1345H41.4919L41.483 32.1297Z" fill="#D8E8FF"/>
<path d="M41.483 11.0481L41.4919 11.0437H41.4746L31.345 5.55443L21.1985 0.0559082L11.0517 5.55443L0.922023 11.0437H0.904785L0.913604 11.0481L0.904785 11.053H0.922023L11.0517 16.5422L21.1985 22.0408L31.345 16.5422L41.4746 11.053H41.4919L41.483 11.0481Z" fill="#0275FF"/>
<path d="M0.922363 10.6013V32.5765L21.1989 21.5891L0.922363 10.6013Z" fill="#B1CCFF"/>
<path d="M41.4748 10.6013V32.5765L21.1987 21.5891L41.4748 10.6013Z" fill="#B1CCFF"/>
</svg>
